<mxfile host="app.diagrams.net" modified="2024-05-12T11:15:14.343Z" agent="Mozilla/5.0 (Windows NT 10.0; Win64; x64) AppleWebKit/537.36 (KHTML, like Gecko) Chrome/124.0.0.0 Safari/537.36 Edg/124.0.0.0" version="24.4.0" etag="zxqy0muuic7RaKYnMcB7" type="github">
  <diagram name="Page-1" id="2Ikt_EC1GCKtKshhTgcY">
    <mxGraphModel>
      <root>
        <mxCell id="0" />
        <mxCell id="1" parent="0" />
      </root>
    </mxGraphModel>
  </diagram>
</mxfile>
